HIERARCHY
ROOT Hips
{
	OFFSET 0.00 0.00 0.00
	CHANNELS 6 Xposition Yposition Zposition Yrotation Xrotation Zrotation
	JOINT Spine
	{
		OFFSET	0.0000	9.2263	1.5771
		CHANNELS 3 Xrotation Yrotation Zrotation
		JOINT Spine1
		{
			OFFSET	0.0000	16.2540	-0.1656
			CHANNELS 3 Xrotation Yrotation Zrotation
			JOINT Spine2
			{
				OFFSET	0.0000	13.6396	-1.2923
				CHANNELS 3 Xrotation Yrotation Zrotation
				JOINT Neck
				{
					OFFSET	0.0000	13.8774	-4.3542
					CHANNELS 3 Xrotation Yrotation Zrotation
					JOINT Neck1
					{
						OFFSET	0.0000	4.3400	0.9269
						CHANNELS 3 Xrotation Yrotation Zrotation
						JOINT Head
						{
							OFFSET	0.0000	4.0266	0.8585
							CHANNELS 3 Xrotation Yrotation Zrotation
							End Site
							{
								OFFSET 0.0000 23.0297 0.1231
							}
						}
					}
				}
				JOINT LeftShoulder
				{
					OFFSET	6.1442	10.1870	-3.7932
					CHANNELS 3 Zrotation Xrotation Yrotation
					JOINT LeftArm
					{
						OFFSET	12.3191	-1.1130	-1.7935
						CHANNELS 3 Zrotation Xrotation Yrotation
						JOINT LeftForeArm
						{
							OFFSET	27.6870	0.0000	0.0000
							CHANNELS 3 Xrotation Zrotation Yrotation
							JOINT LeftHand
							{
								OFFSET	27.8738	0.0000	0.0000
								CHANNELS 3 Zrotation Yrotation Xrotation
								JOINT LeftHandThumb1
								{
									OFFSET	2.3785	-1.0029	2.6209
									CHANNELS 3 Zrotation Xrotation Yrotation
									JOINT LeftHandThumb2
									{
										OFFSET	3.3624	-1.0029	2.8398
										CHANNELS 3 Zrotation Xrotation Yrotation
										JOINT LeftHandThumb3
										{
											OFFSET	4.5018	-1.3445	2.1783
											CHANNELS 3 Zrotation Xrotation Yrotation
											End Site
											{
												OFFSET 2.6000 -1.0000 1.0000
											}
										}
									}
								}
								JOINT LeftHandMiddle1
								{
									OFFSET	10.4639	0.6148	0.4298
									CHANNELS 3 Zrotation Xrotation Yrotation
									JOINT LeftHandMiddle2
									{
										OFFSET	5.7921	0.0000	0.0000
										CHANNELS 3 Zrotation Xrotation Yrotation
										JOINT LeftHandMiddle3
										{
											OFFSET	3.7132	0.0000	0.0000
											CHANNELS 3 Zrotation Xrotation Yrotation
											End Site
											{
												OFFSET 2.3000 0.0000 0.0000
											}
										}
									}
								}
								JOINT LeftHandIndex1
								{
									OFFSET	10.3945	0.6148	2.7055
									CHANNELS 3 Zrotation Xrotation Yrotation
									JOINT LeftHandIndex2
									{
										OFFSET	5.5493	0.0000	0.0000
										CHANNELS 3 Zrotation Xrotation Yrotation
										JOINT LeftHandIndex3
										{
											OFFSET	3.3911	0.0000	0.0000
											CHANNELS 3 Zrotation Xrotation Yrotation
											End Site
											{
												OFFSET 2.5000 0.0000 0.0000
											}
										}
									}
								}
								JOINT LeftHandRing1
								{
									OFFSET	10.3252	0.3211	-1.8755
									CHANNELS 3 Zrotation Xrotation Yrotation
									JOINT LeftHandRing2
									{
										OFFSET	5.4452	0.0000	0.0000
										CHANNELS 3 Zrotation Xrotation Yrotation
										JOINT LeftHandRing3
										{
											OFFSET	3.7132	0.0000	0.0000
											CHANNELS 3 Zrotation Xrotation Yrotation
											End Site
											{
												OFFSET 2.0000 0.0000 0.0000
											}
										}
									}
								}
								JOINT LeftHandPinky1
								{
									OFFSET	10.0130	-0.0783	-3.9671
									CHANNELS 3 Zrotation Xrotation Yrotation
									JOINT LeftHandPinky2
									{
										OFFSET	3.6763	0.0000	0.0000
										CHANNELS 3 Zrotation Xrotation Yrotation
										JOINT LeftHandPinky3
										{
											OFFSET	2.8113	0.0000	0.0000
											CHANNELS 3 Zrotation Xrotation Yrotation
											End Site
											{
												OFFSET 2.9000 0.0000 0.0000
											}
										}
									}
								}
							}
						}
					}
				}
				JOINT RightShoulder
				{
					OFFSET	-6.1402	10.1870	-3.7932
					CHANNELS 3 Zrotation Xrotation Yrotation
					JOINT RightArm
					{
						OFFSET	-12.3231	-1.1130	-1.7935
						CHANNELS 3 Zrotation Xrotation Yrotation
						JOINT RightForeArm
						{
							OFFSET	-27.6870	0.0000	0.0000
							CHANNELS 3 Xrotation Zrotation Yrotation
							JOINT RightHand
							{
								OFFSET	-27.8738	0.0000	0.0000
								CHANNELS 3 Zrotation Yrotation Xrotation
								JOINT RightHandThumb1
								{
									OFFSET	-2.5178	-0.9367	2.5137
									CHANNELS 3 Zrotation Xrotation Yrotation
									JOINT RightHandThumb2
									{
										OFFSET	-3.2638	-1.0870	2.9669
										CHANNELS 3 Zrotation Xrotation Yrotation
										JOINT RightHandThumb3
										{
											OFFSET	-4.4165	-1.3703	2.1350
											CHANNELS 3 Zrotation Xrotation Yrotation
											End Site
											{
												OFFSET -2.6000 -1.0000 1.0000
											}
										}
									}
								}
								JOINT RightHandIndex1
								{
									OFFSET	-10.4665	0.4896	2.7120
									CHANNELS 3 Zrotation Xrotation Yrotation
									JOINT RightHandIndex2
									{
										OFFSET	-5.3768	0.0000	0.0000
										CHANNELS 3 Zrotation Xrotation Yrotation
										JOINT RightHandIndex3
										{
											OFFSET	-3.3855	0.0000	0.0000
											CHANNELS 3 Zrotation Xrotation Yrotation
											End Site
											{
												OFFSET -2.6000 0.0000 0.0000
											}
										}
									}
								}
								JOINT RightHandMiddle1
								{
									OFFSET	-10.7596	0.4896	0.4278
									CHANNELS 3 Zrotation Xrotation Yrotation
									JOINT RightHandMiddle2
									{
										OFFSET	-5.6168	0.0000	0.0000
										CHANNELS 3 Zrotation Xrotation Yrotation
										JOINT RightHandMiddle3
										{
											OFFSET	-3.7364	0.0000	0.0000
											CHANNELS 3 Zrotation Xrotation Yrotation
											End Site
											{
												OFFSET -2.3000 0.0000 0.0000
											}
										}
									}
								}
								JOINT RightHandRing1
								{
									OFFSET	-10.4702	0.3879	-1.9363
									CHANNELS 3 Zrotation Xrotation Yrotation
									JOINT RightHandRing2
									{
										OFFSET	-5.4013	0.0000	0.0000
										CHANNELS 3 Zrotation Xrotation Yrotation
										JOINT RightHandRing3
										{
											OFFSET	-3.3916	0.0000	0.0000
											CHANNELS 3 Zrotation Xrotation Yrotation
											End Site
											{
												OFFSET -2.2000 0.0000 0.0000
											}
										}
									}
								}
								JOINT RightHandPinky1
								{
									OFFSET	-9.9715	-0.1191	-3.9540
									CHANNELS 3 Zrotation Xrotation Yrotation
									JOINT RightHandPinky2
									{
										OFFSET	-3.6528	0.0000	0.0000
										CHANNELS 3 Zrotation Xrotation Yrotation
										JOINT RightHandPinky3
										{
											OFFSET	-2.7820	0.0000	0.0000
											CHANNELS 3 Zrotation Xrotation Yrotation
											End Site
											{
												OFFSET -2.9000 0.0000 0.0000
											}
										}
									}
								}
							}
						}
					}
				}
			}
		}
	}
	JOINT LeftUpLeg
	{
		OFFSET	9.6338	-3.2733	0.0000
		CHANNELS 3 Xrotation Yrotation Zrotation
		JOINT LeftLeg
		{
			OFFSET	0.0000	-41.7300	-1.7300
			CHANNELS 3 Xrotation Yrotation Zrotation
			JOINT LeftFoot
			{
				OFFSET	0.0126	-39.1900	-0.8477
				CHANNELS 3 Xrotation Yrotation Zrotation
				JOINT LeftToeBase
				{
					OFFSET	-0.1833	-12.1931	8.2823
					CHANNELS 3 Xrotation Yrotation Zrotation
					End Site
					{
						OFFSET 0.0000 0.0000 10.1681
					}
				}
			}
		}
	}
	JOINT RightUpLeg
	{
		OFFSET	-9.6338	-3.2733	0.0000
		CHANNELS 3 Xrotation Yrotation Zrotation
		JOINT RightLeg
		{
			OFFSET	0.0000	-41.7300	-1.7300
			CHANNELS 3 Xrotation Yrotation Zrotation
			JOINT RightFoot
			{
				OFFSET	0.0126	-39.1900	-0.8477
				CHANNELS 3 Xrotation Yrotation Zrotation
				JOINT RightToeBase
				{
					OFFSET	-0.1833	-12.1931	8.2823
					CHANNELS 3 Xrotation Yrotation Zrotation
					End Site
					{
						OFFSET 0.0032 0.0000 10.1681
					}
				}
			}
		}
	}
}
MOTION
Frames: 6
Frame Time: 0.0333333
1.6766 90.0167 1.2554 -32.4869 -1.5219 0.1474 5.1586 16.1110 0.2916 4.3538 0.9147 0.8363 4.3473 0.9355 0.8457 0.9568 1.3756 -2.6247 -0.0000 0.0000 -0.0000 0.9247 4.9641 -8.9124 -8.1500 5.9086 -12.3677 -61.9192 -14.7943 -39.0803 0.0000 -0.0000 -126.5647 6.8094 11.7008 30.8962 -9.1948 9.9447 21.3315 -7.1120 -1.1907 3.7989 6.5826 -0.7621 54.0307 -80.8751 1.4160 0.8679 -93.3070 -1.0738 1.0136 -53.0349 -0.4048 0.8112 -80.1188 1.4250 0.6736 -93.3061 -1.0738 1.0136 -53.8380 -0.4162 0.8197 -79.5215 1.4319 0.8027 -93.9411 -1.0850 1.0129 -54.2298 -0.4218 0.8237 -82.9187 1.3897 2.6944 -93.2884 3.0069 1.2446 -51.5858 -0.3844 0.7955 4.0995 2.8706 18.7689 50.6740 4.5358 44.5007 0.0000 0.0000 119.9996 -25.0065 -6.5550 2.8136 15.9929 0.1670 -29.8550 -0.1393 0.9071 3.8738 -12.8249 34.3124 -46.0420 87.2803 -0.0059 -2.2286 89.8835 -2.2803 -2.2850 55.2073 -0.9811 -1.8763 88.0370 -0.0355 -2.3083 89.8839 -2.2803 -2.2850 54.4520 -0.3110 -1.8582 85.9224 0.0463 -2.3212 91.4197 -2.3416 -2.2843 56.1092 -0.6705 -1.8962 87.2803 -0.0059 -2.2286 89.8835 -2.2803 -2.2850 55.2073 -0.9811 -1.8763 -24.5211 12.3691 13.9178 42.7464 -9.6692 4.6780 -18.3115 -0.6628 -8.8333 -0.0852 0.0000 -0.0000 -21.7140 -6.4396 -9.6401 46.0291 -4.4785 1.4413 -22.0815 -1.4019 6.5724 -0.0001 -0.0000 -0.0000 
0.7695 89.4161 0.6723 -29.3677 -2.7544 -0.0859 5.3448 15.9699 0.9545 4.6260 0.7808 1.2189 4.6180 0.8130 1.2270 1.0312 1.2978 -2.8384 -0.0000 0.0000 -0.0000 1.3232 4.2153 -8.6070 -8.9889 5.9549 -12.0476 -62.1953 -12.7535 -37.9516 -0.0000 -0.0000 -126.1086 7.6578 9.9834 31.0748 -9.1948 9.9447 21.3315 -7.1120 -1.1907 3.7989 6.5826 -0.7622 54.0307 -80.8752 1.4160 0.8679 -93.3070 -1.0738 1.0136 -53.0349 -0.4047 0.8112 -80.1188 1.4250 0.6737 -93.3061 -1.0738 1.0136 -53.8380 -0.4162 0.8197 -79.5215 1.4319 0.8027 -93.9412 -1.0850 1.0129 -54.2298 -0.4218 0.8237 -82.9187 1.3897 2.6944 -93.2884 3.0069 1.2446 -51.5858 -0.3844 0.7955 3.2995 2.5333 18.3816 50.6058 4.7340 43.7613 -0.0000 0.0000 120.1112 -25.3397 -5.8046 3.2857 15.9929 0.1670 -29.8550 -0.1393 0.9071 3.8738 -12.8249 34.3124 -46.0420 87.2803 -0.0059 -2.2286 89.8835 -2.2803 -2.2850 55.2073 -0.9811 -1.8763 88.0370 -0.0355 -2.3083 89.8839 -2.2803 -2.2850 54.4520 -0.3110 -1.8582 85.9224 0.0463 -2.3212 91.4197 -2.3416 -2.2843 56.1092 -0.6705 -1.8962 87.2803 -0.0059 -2.2286 89.8835 -2.2803 -2.2850 55.2073 -0.9811 -1.8763 -25.7389 11.4845 14.5634 47.1513 -9.5209 4.9330 -16.7111 -4.1719 -8.5311 -6.1063 0.0000 -0.0000 -19.6467 -8.2238 -11.0048 47.8600 -4.6088 2.9947 -24.5654 -1.5411 6.3959 -0.0000 0.0000 0.0000 
-0.0839 89.1864 0.0976 -27.1340 -3.5032 0.0234 5.3981 15.9953 1.5155 4.7887 0.8125 1.5171 4.7783 0.8519 1.5258 1.3039 1.2462 -3.1303 -0.0000 0.0000 -0.0000 1.9859 3.5637 -8.2454 -9.9455 5.7833 -11.1528 -62.3688 -9.7451 -36.2200 0.0000 -0.0000 -125.6114 8.6032 8.1228 31.3156 -9.1948 9.9447 21.3315 -7.1120 -1.1907 3.7989 6.5826 -0.7621 54.0307 -80.8752 1.4160 0.8679 -93.3070 -1.0738 1.0136 -53.0349 -0.4048 0.8112 -80.1188 1.4250 0.6737 -93.3061 -1.0738 1.0136 -53.8380 -0.4162 0.8197 -79.5215 1.4319 0.8027 -93.9412 -1.0850 1.0129 -54.2298 -0.4218 0.8237 -82.9187 1.3897 2.6944 -93.2884 3.0069 1.2446 -51.5858 -0.3844 0.7955 3.1620 2.4677 18.2752 50.2422 5.1782 42.5285 -0.0000 0.0000 120.3006 -25.7286 -5.2518 3.8308 15.9929 0.1670 -29.8550 -0.1393 0.9071 3.8738 -12.8249 34.3124 -46.0420 87.2803 -0.0059 -2.2286 89.8835 -2.2803 -2.2850 55.2073 -0.9811 -1.8763 88.0370 -0.0356 -2.3083 89.8839 -2.2803 -2.2850 54.4520 -0.3110 -1.8582 85.9224 0.0463 -2.3212 91.4197 -2.3416 -2.2843 56.1092 -0.6705 -1.8962 87.2803 -0.0059 -2.2286 89.8835 -2.2803 -2.2850 55.2073 -0.9811 -1.8763 -28.5748 10.3225 15.2519 52.5044 -9.6976 4.7522 -10.1789 -7.5065 -8.1814 -9.7323 -0.0176 1.1033 -17.6445 -9.5762 -12.0934 48.3790 -5.3436 4.0459 -26.1162 -1.6815 6.6388 -0.0001 -0.0000 0.0000 
-0.8711 89.2082 -0.4856 -26.4340 -3.9794 0.5079 5.3265 16.2557 1.8287 4.8209 1.0827 1.6196 4.8067 1.1247 1.6313 1.6953 1.2011 -3.4060 -0.0000 0.0000 -0.0000 2.7917 2.9682 -7.7797 -10.8081 5.3858 -9.7855 -62.2716 -6.2394 -34.0331 0.0000 -0.0000 -124.9314 9.2327 6.6542 31.6164 -9.1948 9.9447 21.3315 -7.1120 -1.1907 3.7989 6.5827 -0.7621 54.0307 -80.8752 1.4160 0.8679 -93.3070 -1.0738 1.0136 -53.0349 -0.4048 0.8112 -80.1188 1.4250 0.6737 -93.3061 -1.0738 1.0136 -53.8380 -0.4162 0.8197 -79.5215 1.4319 0.8027 -93.9412 -1.0850 1.0129 -54.2298 -0.4218 0.8237 -82.9187 1.3897 2.6944 -93.2884 3.0069 1.2445 -51.5858 -0.3844 0.7955 3.6353 2.6581 18.5213 49.8567 5.7943 40.9600 0.0000 0.0000 120.5418 -26.0014 -5.1077 4.2646 15.9929 0.1670 -29.8550 -0.1393 0.9071 3.8738 -12.8249 34.3124 -46.0420 87.2803 -0.0059 -2.2286 89.8835 -2.2803 -2.2850 55.2073 -0.9811 -1.8763 88.0370 -0.0355 -2.3083 89.8839 -2.2803 -2.2850 54.4520 -0.3110 -1.8582 85.9224 0.0463 -2.3212 91.4197 -2.3416 -2.2843 56.1092 -0.6705 -1.8962 87.2803 -0.0059 -2.2286 89.8835 -2.2803 -2.2850 55.2073 -0.9811 -1.8763 -31.1516 9.4612 16.0153 57.6470 -9.6836 4.2785 -5.6995 -9.5697 -8.4561 -9.4046 -0.0003 0.2066 -15.9697 -10.0481 -12.4266 48.1207 -5.8757 3.7380 -27.0460 -1.8963 7.2392 -0.0001 -0.0000 -0.0000 
-1.5794 89.1375 -0.9755 -26.2068 -4.4997 0.9654 5.1788 16.6580 1.9850 4.7782 1.5037 1.5820 4.7586 1.5466 1.5977 2.0493 1.1389 -3.5970 -0.0000 0.0000 -0.0000 3.5548 2.3424 -7.2712 -11.3323 4.8917 -8.3698 -61.9210 -3.0446 -31.8651 0.0000 -0.0000 -124.1337 8.9383 6.0619 31.8675 -9.1948 9.9447 21.3315 -7.1120 -1.1907 3.7989 6.5827 -0.7621 54.0307 -80.8751 1.4160 0.8679 -93.3070 -1.0738 1.0136 -53.0349 -0.4048 0.8112 -80.1188 1.4250 0.6736 -93.3061 -1.0738 1.0136 -53.8380 -0.4162 0.8197 -79.5215 1.4319 0.8027 -93.9412 -1.0850 1.0129 -54.2298 -0.4218 0.8237 -82.9187 1.3897 2.6944 -93.2884 3.0069 1.2445 -51.5858 -0.3844 0.7955 4.2620 2.9234 18.9355 49.7510 6.4172 39.4630 -0.0000 0.0000 120.7636 -25.9417 -5.3295 4.4691 15.9929 0.1670 -29.8550 -0.1393 0.9071 3.8738 -12.8249 34.3124 -46.0420 87.2803 -0.0059 -2.2286 89.8835 -2.2803 -2.2849 55.2074 -0.9811 -1.8763 88.0370 -0.0356 -2.3084 89.8839 -2.2803 -2.2850 54.4520 -0.3110 -1.8582 85.9224 0.0463 -2.3212 91.4197 -2.3415 -2.2843 56.1092 -0.6705 -1.8962 87.2803 -0.0059 -2.2286 89.8835 -2.2803 -2.2849 55.2074 -0.9811 -1.8763 -33.4843 8.3745 16.6178 62.5019 -9.6516 4.1605 -1.3524 -11.7852 -8.9202 -8.5179 0.0000 -0.0000 -14.4907 -11.0762 -13.5819 47.9555 -4.8317 4.1861 -28.0708 -1.8975 7.0157 -0.0000 -0.0000 -0.0000 
-2.1092 89.1772 -1.3395 -25.6391 -4.8108 1.4739 5.0030 17.0570 2.0555 4.7023 1.9270 1.5348 4.6767 1.9721 1.5534 2.2856 1.0561 -3.7156 -0.0000 0.0000 -0.0000 4.1613 1.6548 -6.7876 -11.4474 4.4382 -7.2441 -61.4701 -0.6247 -30.1071 -0.0000 0.0000 -123.3715 7.5350 6.3867 31.9843 -9.1948 9.9447 21.3315 -7.1120 -1.1907 3.7989 6.5826 -0.7621 54.0307 -80.8751 1.4160 0.8679 -93.3070 -1.0738 1.0136 -53.0349 -0.4047 0.8112 -80.1188 1.4250 0.6737 -93.3061 -1.0738 1.0136 -53.8380 -0.4162 0.8197 -79.5215 1.4319 0.8027 -93.9411 -1.0850 1.0129 -54.2298 -0.4218 0.8237 -82.9187 1.3897 2.6944 -93.2884 3.0069 1.2446 -51.5858 -0.3844 0.7955 4.6760 3.1138 19.2952 49.9555 6.9091 38.3098 0.0000 0.0000 120.9308 -25.4618 -5.6644 4.4489 15.9929 0.1670 -29.8550 -0.1393 0.9071 3.8738 -12.8249 34.3124 -46.0420 87.2803 -0.0059 -2.2286 89.8835 -2.2803 -2.2850 55.2073 -0.9811 -1.8763 88.0370 -0.0356 -2.3084 89.8839 -2.2803 -2.2850 54.4520 -0.3110 -1.8582 85.9224 0.0463 -2.3212 91.4197 -2.3416 -2.2843 56.1092 -0.6705 -1.8962 87.2803 -0.0059 -2.2286 89.8835 -2.2803 -2.2850 55.2073 -0.9811 -1.8763 -35.0450 7.2790 16.4507 65.4975 -9.6275 4.2322 0.7108 -13.2062 -8.6749 -4.7081 -0.0000 -0.0000 -12.8993 -11.9300 -14.5767 47.2593 -4.5661 4.3617 -28.7427 -2.0355 7.3503 0.0001 0.0000 -0.0000 
